<svg xmlns="http://www.w3.org/2000/svg" width="103.744" height="103.862" viewBox="0 0 103.744 103.862">
  <g id="cat-move" transform="translate(-0.28 0)">
    <g id="Group_2" data-name="Group 2" transform="translate(36.873 0)">
      <g id="Group_1" data-name="Group 1" transform="translate(0 0)">
        <path id="Path_1" data-name="Path 1" d="M203.332,13.295,190.889.852a3.04,3.04,0,0,0-4.219,0L174.483,13.038a2.928,2.928,0,0,0,0,4.138l1.571,1.571a2.991,2.991,0,0,0,4.128,0l4.665-4.675V31.253a.761.761,0,0,0,.04.144,2.931,2.931,0,0,0,2.913,2.682h2.221a2.94,2.94,0,0,0,2.94-2.924V14.327L197.629,19a2.923,2.923,0,0,0,4.134,0l1.569-1.57A2.929,2.929,0,0,0,203.332,13.295Z" transform="translate(-173.627 0)" fill="#514f4f"/>
      </g>
    </g>
    <g id="Group_4" data-name="Group 4" transform="translate(36.872 69.783)">
      <g id="Group_3" data-name="Group 3">
        <path id="Path_2" data-name="Path 2" d="M203.326,347.218l-1.571-1.574a2.99,2.99,0,0,0-4.13,0l-4.667,4.676V333.558a3,3,0,0,0-2.939-2.989H187.8a2.959,2.959,0,0,0-2.912,2.714,1.166,1.166,0,0,0-.04.177v17.117L180.18,345.9a3,3,0,0,0-4.133,0l-1.571,1.571a2.931,2.931,0,0,0,0,4.139L186.666,363.8a2.878,2.878,0,0,0,2.041.851h.11a2.89,2.89,0,0,0,2.067-.851l12.442-12.442A2.927,2.927,0,0,0,203.326,347.218Z" transform="translate(-173.622 -330.569)" fill="#514f4f"/>
      </g>
    </g>
    <g id="Group_6" data-name="Group 6" transform="translate(0.28 36.681)">
      <g id="Group_5" data-name="Group 5" transform="translate(0)">
        <path id="Path_3" data-name="Path 3" d="M31.305,184.953h-16.7l4.676-4.651a2.908,2.908,0,0,0,0-4.118l-1.571-1.568a2.928,2.928,0,0,0-4.138,0L1.131,187.06a3.042,3.042,0,0,0,0,4.219l12.186,12.187a2.929,2.929,0,0,0,4.139,0l1.571-1.571a2.939,2.939,0,0,0,0-4.145l-4.675-4.683H31.394a1.215,1.215,0,0,0,.185-.022,2.949,2.949,0,0,0,2.721-2.9v-2.224A3.03,3.03,0,0,0,31.305,184.953Z" transform="translate(-0.28 -173.761)" fill="#514f4f"/>
      </g>
    </g>
    <g id="Group_8" data-name="Group 8" transform="translate(70.004 36.683)">
      <g id="Group_7" data-name="Group 7">
        <path id="Path_4" data-name="Path 4" d="M363.739,187.07,351.3,174.629a2.928,2.928,0,0,0-4.138,0l-1.57,1.571a2.9,2.9,0,0,0-.855,2.068,2.841,2.841,0,0,0,.855,2.043l4.675,4.651H333.48a2.956,2.956,0,0,0-2.909,2.973v2.224a2.906,2.906,0,0,0,2.673,2.895.635.635,0,0,0,.137.023H350.52l-4.677,4.682a2.94,2.94,0,0,0,0,4.144l1.572,1.571a2.926,2.926,0,0,0,4.138,0l12.188-12.187a3.04,3.04,0,0,0,0-4.219Z" transform="translate(-330.571 -173.773)" fill="#514f4f"/>
      </g>
    </g>
    <g id="Group_10" data-name="Group 10" transform="translate(44.035 43.812)">
      <g id="Group_9" data-name="Group 9">
        <path id="Path_5" data-name="Path 5" d="M215.673,207.541a8.119,8.119,0,1,0,8.119,8.119A8.128,8.128,0,0,0,215.673,207.541Z" transform="translate(-207.555 -207.541)" fill="#514f4f"/>
      </g>
    </g>
  </g>
</svg>
